<svg width="26" height="20" viewBox="0 0 26 20" fill="none" xmlns="http://www.w3.org/2000/svg">
<path fill-rule="evenodd" clip-rule="evenodd" d="M25.9916 2.34232C25.0362 2.74033 24.009 3.00608 22.9324 3.12721C24.0325 2.50918 24.8767 1.53023 25.2747 0.365871C24.2439 0.936927 23.1042 1.35224 21.8904 1.5772C20.9201 0.605665 19.5345 0 18.003 0C15.0612 0 12.6744 2.23602 12.6744 4.99241C12.6744 5.38424 12.7214 5.76618 12.8128 6.13082C8.38531 5.92192 4.45961 3.93435 1.83177 0.914678C1.37319 1.6526 1.11115 2.50918 1.11115 3.4251C1.11115 5.15557 2.05178 6.6858 3.48066 7.5807C2.60801 7.55351 1.78727 7.32978 1.06789 6.95526C1.06789 6.97751 1.06789 6.99605 1.06789 7.01954C1.06789 9.43849 2.90342 11.4557 5.34092 11.9143C4.8947 12.028 4.42253 12.0873 3.938 12.0873C3.59437 12.0873 3.26064 12.0577 2.93556 12.0008C3.61292 13.9822 5.58071 15.4272 7.9119 15.4679C6.08873 16.8066 3.79214 17.6038 1.29532 17.6038C0.865173 17.6038 0.441208 17.5804 0.0246582 17.5346C2.38181 18.9499 5.1827 19.7781 8.19125 19.7781C17.9907 19.7781 23.3489 12.1689 23.3489 5.57212C23.3489 5.35457 23.3428 5.14074 23.3329 4.92566C24.3736 4.22112 25.2772 3.34228 25.9916 2.34232Z" fill="white"/>
</svg>
