<svg width="26" height="25" viewBox="0 0 26 25" fill="none" xmlns="http://www.w3.org/2000/svg">
<path fill-rule="evenodd" clip-rule="evenodd" d="M26.0001 17.2361V11.8151V0H3.33639L0.503418 3.05802V19.1821H7.58584V24.1862H10.7021L14.1017 20.5722H22.6006L26.0001 17.2361ZM9.28531 16.9582H4.75262C4.441 16.9582 4.18604 16.708 4.18604 16.4022V2.78013C4.18604 2.47432 4.441 2.22412 4.75262 2.22412H22.8834C23.195 2.22412 23.45 2.47432 23.45 2.78013V13.3442C23.45 13.4971 23.3933 13.6361 23.2871 13.7404L20.1708 16.7984C20.0646 16.9026 19.9159 16.9582 19.7671 16.9582H14.5616L10.1706 19.919C10.0785 19.9815 9.96521 20.0163 9.85189 20.0163C9.75982 20.0163 9.67484 19.9954 9.58985 19.9537C9.39862 19.8564 9.28531 19.6688 9.28531 19.4603V16.9582Z" fill="white"/>
<path d="M17.7843 12.0932V6.5332H15.5179V12.0932H17.7843ZM12.1184 12.0932V6.5332H9.85205V12.0932H12.1184Z" fill="white"/>
</svg>
