<svg width="19" height="15" viewBox="0 0 19 15" fill="none" xmlns="http://www.w3.org/2000/svg">
<path opacity="0.3" d="M18.726 1.99074C18.051 2.27669 17.335 2.46442 16.602 2.5477C17.3644 2.10935 17.9509 1.41663 18.2269 0.59C17.501 1.00213 16.7068 1.29249 15.8787 1.44853C15.1797 0.734369 14.2023 0.32985 13.1797 0.331548C11.1383 0.331548 9.48149 1.91526 9.48149 3.86889C9.48149 4.14649 9.51415 4.41704 9.57809 4.67538C6.50427 4.52762 3.78004 3.11983 1.95575 0.979162C1.63722 1.50102 1.45553 2.10935 1.45553 2.75784C1.45553 3.98464 2.10812 5.06762 3.10019 5.70215C2.51282 5.68492 1.93834 5.53317 1.42494 5.25962V5.30473C1.42494 7.01828 2.69977 8.44818 4.39066 8.77386C3.84609 8.91494 3.2751 8.93563 2.72093 8.83437C3.19172 10.2401 4.55786 11.2626 6.17539 11.2924C4.90998 12.2397 3.31569 12.8063 1.58271 12.8063C1.28803 12.806 0.993621 12.7895 0.700928 12.7568C2.33731 13.7602 4.28153 14.3467 6.36973 14.3467C13.1717 14.3467 16.8906 8.95496 16.8906 4.27929C16.8906 4.12635 16.8906 3.97341 16.8791 3.82158C17.6028 3.32064 18.2277 2.70074 18.7248 1.99074H18.726Z" fill="white"/>
</svg>
